# xmcd
#
# Track frame offsets:
#	150
#	12791
#	23721
#	35507
#	49777
#	63423
#	78486
#	92120
#	107710
#	123233
#	135029
#	147671
#	162931
#	180342
#	191226
#
# Disc length: 2728 seconds
#
# Revision: 1
# Processed by: cddbd v1.5.2PL0 Copyright (c) Steve Scherf et al.
# Submitted via: audiograbber 1.83.01
#
DISCID=c10aa60f
DTITLE=Kenny Rogers - For The Good Times
DYEAR=2003
DGENRE=Country
TTITLE0=Shadow In The Corner Of Your Mind
TTITLE1=Homemade Lies
TTITLE2=Girl Get A Hold Of Yourself
TTITLE3=Sunshine
TTITLE4=A Stranger In My Place
TTITLE5=All God's Lonely Children
TTITLE6=But You Know That I Love You
TTITLE7=For The Good Times
TTITLE8=Heed The Call
TTITLE9=Me And Bobby McGee
TTITLE10=Ruben James
TTITLE11=Tell It All Brother
TTITLE12=Something's Burning
TTITLE13=She Even Woke Me Up To Say Goodbye
TTITLE14=Ruby Don't Take Your Love To Town
EXTD=
EXTT0=
EXTT1=
EXTT2=
EXTT3=
EXTT4=
EXTT5=
EXTT6=
EXTT7=
EXTT8=
EXTT9=
EXTT10=
EXTT11=
EXTT12=
EXTT13=
EXTT14=
PLAYORDER=
